<?xml version="1.0" encoding="UTF-8"?>
<svg id="Capa_2" data-name="Capa 2" xmlns="http://www.w3.org/2000/svg" viewBox="0 0 2378.36 868.63">
  <defs>
    <style>
      .cls-1 {
        fill: #fff;
      }

      .cls-2 {
        fill: #4cbed8;
      }
    </style>
  </defs>
  <g id="Capa_1-2" data-name="Capa 1">
    <g>
      <g>
        <path class="cls-2" d="M2139.72,722.7c-42.05,0-62.57,10.27-84.29,21.15-22.32,11.18-45.4,22.74-90.99,22.74s-68.67-11.56-90.99-22.74c-21.72-10.88-42.24-21.15-84.29-21.15s-62.56,10.27-84.28,21.15c-22.32,11.18-45.4,22.74-90.98,22.74s-68.67-11.56-90.99-22.74c-21.72-10.88-42.24-21.15-84.29-21.15-4.13,0-7.48-3.35-7.48-7.48s3.35-7.48,7.48-7.48c45.59,0,68.67,11.56,90.99,22.74,21.72,10.88,42.24,21.15,84.29,21.15s62.56-10.27,84.28-21.15c22.32-11.18,45.4-22.74,90.98-22.74s68.67,11.56,90.99,22.74c21.72,10.88,42.24,21.15,84.29,21.15s62.57-10.27,84.29-21.15c22.32-11.18,45.4-22.16,90.99-22.74,24.73-.31,18.26,15.18,12.95,15.57-3.2.23-12.95-.61-12.95-.61Z"/>
        <path class="cls-2" d="M1964.45,772.23c-46.91,0-70.6-11.86-93.51-23.33-21.11-10.58-41.04-20.56-81.76-20.56s-60.66,9.98-81.76,20.56c-22.9,11.47-46.59,23.33-93.51,23.33s-70.6-11.86-93.51-23.33c-21.11-10.58-41.04-20.56-81.76-20.56-7.23,0-13.12-5.88-13.12-13.12s5.88-13.12,13.12-13.12c46.91,0,70.6,11.86,93.51,23.33,21.12,10.58,41.06,20.56,81.76,20.56s60.65-9.98,81.75-20.55c22.91-11.47,46.6-23.34,93.52-23.34s70.6,11.86,93.51,23.33c21.12,10.58,41.06,20.56,81.76,20.56s60.64-9.98,81.74-20.55c21.29-10.66,45.39-22.73,93.46-23.34,21.28-.3,23.43,10.62,23.57,13.97.28,6.44-4.46,12.45-10.14,12.87-3.31.23-11.43-.41-13.6-.59-40.56.04-60.46,10.01-81.52,20.56-22.91,11.47-46.6,23.33-93.51,23.33ZM1789.18,717.06c43.39,0,64.48,10.56,86.81,21.75,21.74,10.88,44.21,22.14,88.46,22.14s66.72-11.25,88.45-22.13c22.34-11.19,43.43-21.76,86.82-21.76l.48.02c3.48.3,8.85.7,11.36.63.25-.36.5-.97.35-1.39-.27-.8-3.06-3.03-12.12-2.95-45.48.57-68.35,12.03-88.53,22.14-22.35,11.19-43.44,21.75-86.81,21.75s-64.47-10.56-86.8-21.74c-21.75-10.89-44.23-22.14-88.48-22.14s-66.72,11.25-88.46,22.14c-22.34,11.19-43.43,21.75-86.81,21.75s-64.47-10.56-86.8-21.74c-21.75-10.89-44.23-22.14-88.48-22.14-1.02,0-1.84.83-1.84,1.84s.83,1.84,1.84,1.84c43.39,0,64.48,10.56,86.81,21.75,21.74,10.88,44.21,22.14,88.46,22.14s66.72-11.25,88.46-22.14c22.33-11.19,43.42-21.75,86.81-21.75Z"/>
      </g>
      <g>
        <path class="cls-2" d="M1840.72,823.48c-40.71-10.52-63.15-5.7-86.9-.6-24.41,5.24-49.64,10.66-93.78-.74-44.14-11.4-62.67-32.94-83.99-45.92-40.72-24.79-33.03-29.58-73.56-43.2-3.92-1.32-7.57-2.33-6.54-6.33,1.03-4,5.11-6.41,9.11-5.37,44.14,11.4,52.99,27.35,78.03,43.63,20.37,13.24,39.98,32.19,80.69,42.7,40.71,10.52,63.15,5.7,86.9.6,24.41-5.24,49.64-10.66,93.78.74"/>
        <path class="cls-2" d="M1708.35,834.53c-13.9,0-29.96-1.83-49.71-6.93-33.41-8.63-53.09-23.23-68.9-34.97-5.73-4.25-11.14-8.26-16.62-11.6-15.69-9.55-24.29-16.17-31.2-21.48-10.93-8.41-16.94-13.04-41.23-21.19l-.52-.17c-3.28-1.09-11.98-3.99-9.68-12.91,1.81-7,8.99-11.23,15.98-9.42,33.04,8.53,47.06,19.58,61.9,31.27,5.44,4.28,11.06,8.71,17.8,13.09,4.38,2.85,8.64,5.89,13.14,9.11,16.28,11.63,34.74,24.82,65.89,32.87,39.43,10.18,61.23,5.5,84.3.55,25.05-5.37,50.94-10.94,96.37.8l-2.82,10.92c-42.85-11.07-67.42-5.79-91.18-.69-24.43,5.24-47.49,10.19-89.49-.66-33.18-8.57-52.54-22.41-69.62-34.61-4.4-3.14-8.56-6.11-12.73-8.82-7.17-4.66-12.99-9.25-18.63-13.69-14.49-11.41-27-21.27-57.74-29.21-.5-.13-1-.04-1.41.21.51.18,1.04.36,1.49.51l.55.18c26.07,8.76,33.01,14.1,44.51,22.95,6.69,5.15,15.02,11.55,30.19,20.78,5.92,3.6,11.53,7.77,17.47,12.18,15.81,11.73,33.73,25.02,65,33.11,42.85,11.06,67.43,5.79,91.18.69,24.42-5.25,47.49-10.2,89.49.66l-2.82,10.92c-39.42-10.19-61.23-5.51-84.3-.55-14.16,3.04-28.59,6.14-46.66,6.14Z"/>
      </g>
      <g>
        <path class="cls-1" d="M496.93,134.98L301.43,22.11c-18.92-10.92-42.42-10.92-61.34,0L44.59,134.98c-18.92,10.92-30.67,31.28-30.67,53.12v220.96c0,24.8,13.34,47.9,34.81,60.3l.15.09,204.8,76.46,2.38-5.51-204.48-76.32c-19.53-11.35-31.66-32.41-31.66-55.01v-220.96c0-19.71,10.6-38.07,27.67-47.92L243.09,27.31c17.07-9.85,38.27-9.85,55.34,0l195.5,112.87c17.07,9.85,27.67,28.22,27.67,47.92v220.96c0,22.6-12.13,43.66-31.66,55.01l-202.8,75.6,2.38,5.51,202.96-75.67.31-.16c21.47-12.4,34.81-35.5,34.81-60.3v-220.96c0-21.85-11.75-42.2-30.67-53.12Z"/>
        <path class="cls-1" d="M261.21,563.58l-219.15-82C16,466.54,0,438.81,0,409.06v-220.95c0-26.8,14.42-51.78,37.63-65.18L233.13,10.05c23.2-13.39,52.04-13.41,75.26,0l195.5,112.87c23.22,13.4,37.63,38.39,37.63,65.18v220.95c0,29.75-16,57.48-41.77,72.36l-2.4,1.14-215.36,80.29-10.23-23.66-10.55,24.39ZM57.63,451.47l212.99,79.51,213.28-79.51c14.7-8.98,23.78-25.13,23.78-42.41v-220.95c0-14.74-7.94-28.5-20.71-35.88l-195.5-112.87c-12.77-7.37-28.64-7.39-41.42,0L54.55,152.23c-12.77,7.38-20.71,21.13-20.71,35.88v220.95c0,17.28,9.09,33.43,23.79,42.41Z"/>
      </g>
      <g>
        <path class="cls-1" d="M414.76,349.32c14.29,0,25.92-11.63,25.92-25.92s-11.63-25.92-25.92-25.92-25.92,11.63-25.92,25.92c0,2.78.44,5.46,1.26,7.97l-122.34,50.41v472.92h6.01v-468.9l118.84-48.97c4.55,7.48,12.78,12.49,22.16,12.49Z"/>
        <path class="cls-1" d="M287.68,868.63h-33.85v-496.16l121.09-49.89c.44-21.59,18.14-39,39.83-39s39.84,17.87,39.84,39.84-17.87,39.84-39.84,39.84c-9.63,0-18.88-3.57-26.05-9.75l-101.02,41.63v473.51ZM403.78,328.43l.71,1.18c2.21,3.63,6.05,5.8,10.27,5.8,6.62,0,12-5.38,12-12s-5.38-12-12-12-12,5.38-12,12c0,1.25.19,2.48.58,3.66l.44,1.36Z"/>
      </g>
      <g>
        <polygon class="cls-1" points="1512.72 585.89 1441.46 585.89 1441.46 598.87 1520.11 598.87 1564.64 566.35 1667.98 566.35 1722.04 605.8 1905.67 605.8 1905.67 592.82 1729.45 592.82 1675.39 553.38 1557.29 553.38 1512.72 585.89"/>
        <path class="cls-1" d="M1911.31,611.44h-191.11l-54.05-39.44h-99.66l-44.54,32.51h-86.12v-24.25h75.06l44.57-32.51h121.78l54.05,39.44h180.02v24.25ZM1723.88,600.16h176.16v-1.7h-172.42l-54.05-39.44h-114.42l-44.57,32.51h-67.46v1.7h71.17l44.54-32.51h107.02l54.05,39.44Z"/>
      </g>
      <g>
        <rect class="cls-1" x="1449.01" y="659.79" width="555.59" height="12.98"/>
        <path class="cls-1" d="M2010.24,678.41h-566.87v-24.26h566.87v24.26ZM1454.64,667.13h544.32v-1.7h-544.32s0,1.7,0,1.7Z"/>
      </g>
      <g>
        <polygon class="cls-1" points="287.6 423 264.73 443.85 215.15 384.99 87.05 379.04 88.47 348.15 229.37 354.62 287.6 423"/>
        <path class="cls-1" d="M122.64,326.05c-21.04-.97-38.8,15.29-39.76,36.27h0c-.97,21.04,15.22,38.93,36.26,39.9h0c21.12.97,39.04-15.35,39.95-36.4h0c1.03-20.98-15.33-38.8-36.45-39.77h0Z"/>
      </g>
      <g>
        <path class="cls-1" d="M1886.96,625.19c14.07,0,25.55-11.48,25.55-25.6h0c0-14.07-11.48-25.6-25.55-25.6h0c-14.12,0-25.58,11.53-25.58,25.6h0c0,14.12,11.46,25.6,25.58,25.6h0Z"/>
        <path class="cls-1" d="M1886.96,630.83c-17.22,0-31.22-14.01-31.22-31.24s14.01-31.24,31.22-31.24,31.19,14.01,31.19,31.24-13.99,31.24-31.19,31.24ZM1886.96,579.63c-11,0-19.95,8.95-19.95,19.96s8.95,19.96,19.95,19.96,19.91-8.95,19.91-19.96-8.93-19.96-19.91-19.96Z"/>
      </g>
      <g>
        <path class="cls-2" d="M1843.71,840.32c14.07,0,25.55-11.48,25.55-25.6h0c0-14.07-11.48-25.6-25.55-25.6h0c-14.12,0-25.58,11.53-25.58,25.6h0c0,14.12,11.46,25.6,25.58,25.6h0Z"/>
        <path class="cls-2" d="M1843.71,845.96c-17.22,0-31.22-14.01-31.22-31.24s14-31.24,31.22-31.24,31.19,14.01,31.19,31.24-13.99,31.24-31.19,31.24ZM1843.71,794.76c-11,0-19.94,8.96-19.94,19.96s8.95,19.96,19.94,19.96,19.92-8.95,19.92-19.96-8.93-19.96-19.92-19.96Z"/>
      </g>
      <g>
        <polygon class="cls-1" points="287.66 524.36 253.88 524.53 252.74 307.88 153.31 209.37 177.05 185.38 286.47 293.68 287.66 524.36"/>
        <path class="cls-1" d="M188.05,161.36c-16.34-16.17-42.62-15.99-58.74.31h0c-16.17,16.34-16.15,42.67.2,58.84h0c16.4,16.23,42.86,16.12,58.98-.27h0c16.17-16.24,15.96-42.65-.44-58.88h0Z"/>
      </g>
      <g>
        <path class="cls-2" d="M2141.51,743.29c14.07,0,25.55-11.48,25.55-25.6h0c0-14.07-11.48-25.6-25.55-25.6h0c-14.12,0-25.58,11.53-25.58,25.6h0c0,14.12,11.46,25.6,25.58,25.6h0Z"/>
        <path class="cls-2" d="M2141.5,750.81c-18.25,0-33.1-14.86-33.1-33.12s14.85-33.12,33.1-33.12,33.07,14.85,33.07,33.12-14.84,33.12-33.07,33.12ZM2141.5,699.61c-9.96,0-18.06,8.11-18.06,18.08s8.1,18.09,18.06,18.09,18.04-8.11,18.04-18.09-8.09-18.08-18.04-18.08Z"/>
      </g>
      <g>
        <path class="cls-1" d="M1990.2,691.08c14.07,0,25.55-11.48,25.55-25.6h0c0-14.07-11.48-25.6-25.55-25.6h0c-14.12,0-25.58,11.53-25.58,25.6h0c0,14.12,11.46,25.6,25.58,25.6h0Z"/>
        <path class="cls-1" d="M1990.2,696.72c-17.22,0-31.22-14.01-31.22-31.24s14-31.24,31.22-31.24,31.19,14.01,31.19,31.24-13.99,31.24-31.19,31.24ZM1990.2,645.52c-11,0-19.94,8.95-19.94,19.96s8.95,19.96,19.94,19.96,19.92-8.95,19.92-19.96-8.93-19.96-19.92-19.96Z"/>
      </g>
      <g>
        <path class="cls-1" d="M742.43,387.39c-18.49-9.74-32.82-23.42-43.01-41.03-10.19-17.61-15.28-38.05-15.28-61.34v-82.07c0-22.7,5.09-42.78,15.28-60.24,10.19-17.46,24.52-30.99,43.01-40.6,18.48-9.61,39.79-14.41,63.95-14.41s45.91,4.8,64.39,14.41c18.48,9.61,32.81,23.13,43,40.6,10.19,17.46,15.28,37.54,15.28,60.24v82.07c0,23.29-5.09,43.73-15.28,61.34-10.19,17.61-24.52,31.29-43,41.03-18.49,9.75-39.94,14.63-64.39,14.63s-45.47-4.88-63.95-14.63ZM835.85,319.73c7.42-8,11.13-18.69,11.13-32.09v-85.56c0-13.38-3.71-24.08-11.13-32.09-7.42-8-17.24-12.01-29.47-12.01s-21.61,4.01-29.02,12.01c-7.42,8.01-11.14,18.7-11.14,32.09v85.56c0,13.39,3.72,24.09,11.14,32.09,7.41,8.01,17.09,12.01,29.02,12.01s22.05-4,29.47-12.01Z"/>
        <path class="cls-1" d="M1010.68,388.27c-18.33-8-32.52-19.43-42.56-34.27-10.04-14.84-15.06-32.02-15.06-51.52v-6.11c0-2.03.58-3.63,1.75-4.8s2.76-1.75,4.8-1.75h67.66c2.03,0,3.63.59,4.8,1.75,1.16,1.17,1.75,2.77,1.75,4.8v2.62c0,8.15,4.29,15.35,12.88,21.61,8.58,6.26,20.01,9.38,34.27,9.38,10.76,0,18.48-2.25,23.13-6.76,4.65-4.51,6.99-9.53,6.99-15.06,0-6.41-2.92-11.2-8.74-14.41-5.83-3.2-16.45-7.13-31.87-11.79l-12.66-3.49c-28.81-8.74-52.97-20.37-72.47-34.92-19.5-14.55-29.24-35.65-29.24-63.31,0-18.33,4.94-34.55,14.84-48.67,9.89-14.11,23.5-24.96,40.81-32.52,17.31-7.57,36.74-11.35,58.28-11.35,22.7,0,43.29,4.22,61.77,12.66,18.48,8.45,33.03,20.38,43.65,35.8,10.62,15.42,15.94,33.03,15.94,52.82v3.92c0,2.05-.59,3.64-1.75,4.8s-2.77,1.75-4.8,1.75h-67.66c-2.04,0-3.64-.58-4.8-1.75-1.17-1.16-1.75-2.75-1.75-4.8v-.43c0-8.73-3.92-16.66-11.78-23.79-7.86-7.13-18.49-10.7-31.87-10.7-9.32,0-16.66,1.9-22.05,5.68-5.39,3.79-8.07,9.03-8.07,15.71,0,5.24,1.97,9.68,5.89,13.31,3.93,3.64,9.97,7.14,18.11,10.48,8.15,3.34,20.67,7.64,37.55,12.88,2.32.87,12.58,4.01,30.77,9.38,18.19,5.39,33.39,15.14,45.62,29.25,12.22,14.12,18.33,31.22,18.33,51.3s-4.95,36.3-14.84,50.42c-9.9,14.12-23.72,24.96-41.47,32.52-17.75,7.57-38.41,11.35-61.99,11.35s-45.83-4-64.18-12Z"/>
        <path class="cls-1" d="M1223.72,395.03c-1.17-1.16-1.75-2.76-1.75-4.8V97.74c0-2.03.58-3.63,1.75-4.8s2.75-1.74,4.79-1.74h68.98c2.03,0,3.63.59,4.8,1.74,1.16,1.17,1.75,2.77,1.75,4.8v292.49c0,2.04-.59,3.64-1.75,4.8-1.17,1.17-2.77,1.75-4.8,1.75h-68.98c-2.04,0-3.64-.58-4.79-1.75Z"/>
        <path class="cls-1" d="M1510.96,92.94c1.16-1.15,2.76-1.74,4.8-1.74h68.97c2.04,0,3.64.59,4.8,1.74,1.16,1.17,1.75,2.77,1.75,4.8v292.49c0,2.04-.59,3.64-1.75,4.8-1.16,1.17-2.76,1.75-4.8,1.75h-65.92c-3.49,0-6.11-1.45-7.86-4.37l-89.06-148.42c-.58-.87-1.16-1.23-1.74-1.1-.59.15-.88.81-.88,1.97l.88,145.37c0,2.04-.59,3.64-1.75,4.8-1.17,1.17-2.77,1.75-4.8,1.75h-68.98c-2.04,0-3.64-.58-4.79-1.75-1.17-1.16-1.75-2.76-1.75-4.8V97.74c0-2.03.58-3.63,1.75-4.8,1.15-1.15,2.75-1.74,4.79-1.74h65.92c3.49,0,6.11,1.46,7.86,4.37l88.62,148.42c.58.87,1.16,1.24,1.75,1.09.58-.14.87-.8.87-1.96l-.43-145.38c0-2.03.58-3.63,1.75-4.8Z"/>
        <path class="cls-1" d="M1844.47,159.73c-1.16,1.17-2.76,1.75-4.79,1.75h-130.09c-1.47,0-2.18.72-2.18,2.18v41.03c0,1.46.72,2.18,2.18,2.18h80.76c2.03,0,3.63.59,4.8,1.75,1.16,1.16,1.74,2.76,1.74,4.8v56.74c0,2.04-.58,3.64-1.74,4.8-1.17,1.17-2.77,1.75-4.8,1.75h-80.76c-1.47,0-2.18.73-2.18,2.18v111.31c0,2.04-.59,3.64-1.75,4.8-1.17,1.17-2.77,1.75-4.8,1.75h-68.98c-2.04,0-3.64-.58-4.79-1.75-1.17-1.16-1.75-2.76-1.75-4.8V97.74c0-2.03.58-3.63,1.75-4.8,1.15-1.15,2.75-1.74,4.79-1.74h207.8c2.03,0,3.63.59,4.79,1.74,1.16,1.17,1.75,2.77,1.75,4.8v57.19c0,2.04-.59,3.64-1.75,4.8Z"/>
        <path class="cls-1" d="M1921.52,387.39c-18.49-9.74-32.82-23.42-43.01-41.03-10.19-17.61-15.28-38.05-15.28-61.34v-82.07c0-22.7,5.09-42.78,15.28-60.24,10.19-17.46,24.52-30.99,43.01-40.6,18.48-9.61,39.79-14.41,63.95-14.41s45.91,4.8,64.39,14.41c18.48,9.61,32.81,23.13,43,40.6,10.19,17.46,15.28,37.54,15.28,60.24v82.07c0,23.29-5.09,43.73-15.28,61.34-10.19,17.61-24.52,31.29-43,41.03-18.49,9.75-39.94,14.63-64.39,14.63s-45.47-4.88-63.95-14.63ZM2014.94,319.73c7.42-8,11.13-18.69,11.13-32.09v-85.56c0-13.38-3.71-24.08-11.13-32.09-7.42-8-17.24-12.01-29.47-12.01s-21.61,4.01-29.02,12.01c-7.42,8.01-11.14,18.7-11.14,32.09v85.56c0,13.39,3.72,24.09,11.14,32.09,7.41,8.01,17.09,12.01,29.02,12.01s22.05-4,29.47-12.01Z"/>
        <path class="cls-1" d="M2291.49,391.98l-48.02-110.88c-.59-1.16-1.46-1.75-2.62-1.75h-18.33c-1.47,0-2.18.73-2.18,2.18v108.7c0,2.04-.59,3.64-1.75,4.8-1.17,1.17-2.77,1.75-4.8,1.75h-68.98c-2.04,0-3.64-.58-4.79-1.75-1.17-1.16-1.75-2.76-1.75-4.8V97.74c0-2.03.58-3.63,1.75-4.8,1.15-1.15,2.75-1.74,4.79-1.74h132.27c19.79,0,37.18,4.08,52.17,12.22,14.99,8.15,26.63,19.57,34.92,34.26,8.29,14.7,12.44,31.65,12.44,50.86s-4.73,36.01-14.19,50.42c-9.46,14.41-22.48,24.96-39.07,31.65-1.46.58-1.89,1.59-1.31,3.05l55.44,115.25c.58,1.75.88,2.76.88,3.05,0,1.46-.59,2.62-1.75,3.49-1.17.88-2.62,1.31-4.37,1.31h-73.34c-3.79,0-6.26-1.59-7.42-4.8ZM2220.33,163.67v51.07c0,1.46.72,2.18,2.18,2.18h41.03c9.31,0,16.87-2.55,22.7-7.64,5.82-5.09,8.73-11.71,8.73-19.86s-2.91-15.21-8.73-20.3c-5.83-5.09-13.39-7.64-22.7-7.64h-41.03c-1.47,0-2.18.72-2.18,2.18Z"/>
        <path class="cls-2" d="M689.83,831.58c-1.17-1.16-1.75-2.76-1.75-4.8v-292.49c0-2.03.58-3.63,1.75-4.8,1.15-1.15,2.75-1.74,4.79-1.74h68.98c2.03,0,3.63.59,4.8,1.74,1.16,1.17,1.75,2.77,1.75,4.8v226.57c0,1.46.72,2.18,2.18,2.18h134.88c2.04,0,3.64.59,4.8,1.75s1.75,2.76,1.75,4.8v57.18c0,2.04-.59,3.64-1.75,4.8-1.16,1.17-2.76,1.75-4.8,1.75h-212.6c-2.04,0-3.64-.58-4.79-1.75Z"/>
        <path class="cls-2" d="M1135.54,827.66l-9.61-34.05c-.59-1.16-1.31-1.75-2.18-1.75h-92.55c-.88,0-1.6.59-2.18,1.75l-9.61,34.05c-.87,3.78-3.34,5.67-7.42,5.67h-74.65c-5.24,0-7.13-2.46-5.67-7.42l92.11-292.92c1.16-3.5,3.63-5.24,7.42-5.24h92.55c3.78,0,6.25,1.74,7.42,5.24l92.11,292.92c.28.59.43,1.46.43,2.62,0,3.21-2.04,4.8-6.12,4.8h-74.64c-4.09,0-6.55-1.89-7.42-5.67ZM1049.97,729h54.57c1.75,0,2.33-.87,1.75-2.62l-27.94-97.79c-.3-.87-.73-1.3-1.31-1.3s-1.02.43-1.3,1.3l-27.5,97.79c-.3,1.75.28,2.62,1.74,2.62Z"/>
        <path class="cls-2" d="M1449.4,677.04c13.1,7.29,22.71,16.59,28.82,27.95,6.11,11.35,9.17,25.03,9.17,41.03,0,29.98-10.48,52.02-31.44,66.14-20.95,14.12-48.17,21.17-81.64,21.17h-117.43c-2.04,0-3.64-.58-4.79-1.75-1.17-1.16-1.75-2.76-1.75-4.8v-292.49c0-2.03.58-3.63,1.75-4.8,1.15-1.15,2.75-1.74,4.79-1.74h113.51c37.24,0,65.26,6.62,84.03,19.86,18.78,13.25,28.16,35.43,28.16,66.57,0,27.66-11.06,47.74-33.18,60.24-1.16.88-1.16,1.75,0,2.62ZM1332.42,600.22v43.65c0,1.46.72,2.18,2.18,2.18h35.79c21.24,0,31.87-8,31.87-24.01s-10.63-24-31.87-24h-35.79c-1.47,0-2.18.72-2.18,2.18ZM1405.32,737.3c0-16.3-10.19-24.45-30.56-24.45h-40.16c-1.47,0-2.18.72-2.18,2.18v45.83c0,1.46.72,2.18,2.18,2.18h39.72c20.66,0,31-8.58,31-25.75Z"/>
      </g>
      <g>
        <polygon class="cls-1" points="223.01 275.64 252.76 294.15 292.87 214.39 405.69 187.76 397.75 153.67 270.79 183.51 223.01 275.64"/>
        <path class="cls-1" d="M382.89,126.43c23.22-5.41,46.33,9.04,51.72,32.19h0c5.41,23.22-8.93,46.47-32.15,51.87h0c-23.31,5.43-46.62-9.05-51.96-32.29h0c-5.46-23.14,9.07-46.35,32.38-51.77h0Z"/>
      </g>
    </g>
  </g>
</svg>